{"title":"Jack Reacher (2012) BRRip XviD-MeRCuRY","uid":8386844,"size":1476368513,"categoryP":"video","categoryS":"movies","magnet":"?xt=urn:btih:9c522201e4fe2bba113f8944600698e0aa20f661&amp;dn=Jack+Reacher+%282012%29+BRRip+XviD-MeRCuRY&amp;tr=udp%3A%2F%2Ftracker.openbittorrent.com%3A80&amp;tr=udp%3A%2F%2Fopen.demonii.com%3A1337&amp;tr=udp%3A%2F%2Ftracker.coppersurfer.tk%3A6969&amp;tr=udp%3A%2F%2Fexodus.desync.com%3A6969","seeders":1,"leechers":0,"uploader":"Gh0stNet","files":10,"time":1366307209,"description":"\tGeneral\nComplete name: C:\\Users\\Administrator\\Desktop\\Beyaz\\HDL\\BRRRip\\Jack Reacher (2012) BRRip XviD-MeRCuRY\\Jack Reacher (2012) BRRip XviD-MeRCuRY.avi\nFormat: AVI\nFormat/Info: Audio Video Interleave\nFile size: 1.37 GiB\nDuration: 2h 10mn\nOverall bit rate: 1 508 Kbps\n\nVideo\nID: 0\nFormat: MPEG-4 Visual\nFormat profile: Advanced Simple@L5\nFormat settings, BVOP: 2\nFormat settings, QPel: No\nFormat settings, GMC: No warppoints\nFormat settings, Matrix: Default (H.263)\nCodec ID: XVID\nCodec ID/Hint: XviD\nDuration: 2h 10mn\nBit rate: 1 374 Kbps\nWidth: 640 pixels\nHeight: 272 pixels\nDisplay aspect ratio: 2.35:1\nFrame rate: 23.976 fps\nColor space: YUV\nChroma subsampling: 4:2:0\nBit depth: 8 bits\nScan type: Progressive\nCompression mode: Lossy\nBits/(Pixel*Frame): 0.329\nStream size: 1.25 GiB (91%)\nWriting library: XviD 1.2.1 (UTC 2008-12-04)\n\nAudio\nID: 1\nFormat: MPEG Audio\nFormat version: Version 1\nFormat profile: Layer 3\nMode: Joint stereo\nMode extension: MS Stereo\nCodec ID: 55\nCodec ID/Hint: MP3\nDuration: 2h 10mn\nBit rate mode: Constant\nBit rate: 128 Kbps\nChannel(s): 2 channels\nSampling rate: 48.0 KHz\nCompression mode: Lossy\nStream size: 119 MiB (8%)\nAlignment: Aligned on interleaves\nInterleave, duration: 167 ms (4.00 video frames)\nInterleave, preload duration: 216 ms\nTitle: Jack.Reacher.2012.720p.BluRay.X264-AMIABLE\nWriting library: LAME3.99r\nEncoding settings: -m j -V 4 -q 2 -lowpass 17 -b 128\n","torrent":{"xt":"urn:btih:9c522201e4fe2bba113f8944600698e0aa20f661","amp;dn":"Jack+Reacher+%282012%29+BRRip+XviD-MeRCuRY","amp;tr":["udp%3A%2F%2Ftracker.openbittorrent.com%3A80","udp%3A%2F%2Fopen.demonii.com%3A1337","udp%3A%2F%2Ftracker.coppersurfer.tk%3A6969","udp%3A%2F%2Fexodus.desync.com%3A6969"],"infoHash":"9c522201e4fe2bba113f8944600698e0aa20f661","infoHashBuffer":{"type":"Buffer","data":[156,82,34,1,228,254,43,186,17,63,137,68,96,6,152,224,170,32,246,97]},"announce":[],"urlList":[]}}